<svg version="1.1" id="Layer_1" xmlns="http://www.w3.org/2000/svg" xmlns:xlink="http://www.w3.org/1999/xlink" x="0px" y="0px"
	 width="100%" viewBox="0 0 1024 1024" enable-background="new 0 0 1024 1024" xml:space="preserve">
<path fill={fill} opacity="1.000000" stroke="none" 
	d="
M490.301880,865.736816 
	C500.272522,867.181152 500.698425,867.138367 501.620087,876.315247 
	C503.398621,894.023621 504.671844,911.783264 506.102661,929.525879 
	C507.159363,942.629395 508.142212,955.738892 509.134369,968.847473 
	C509.259949,970.506409 509.232178,972.176514 509.292877,973.840820 
	C509.391022,976.532104 508.069489,977.208069 505.525116,976.946594 
	C496.662842,976.036072 496.276489,975.353638 495.632202,966.246948 
	C494.282745,947.173706 492.577393,928.125793 491.055359,909.064575 
	C490.450775,901.493286 489.944550,893.914124 489.389618,886.284668 
	C487.255920,886.481506 487.134125,888.053345 486.657715,889.145630 
	C475.808685,914.019104 464.939301,938.884277 454.264191,963.832458 
	C452.665558,967.568481 450.542816,968.915894 446.608429,968.195801 
	C442.735107,967.486877 439.450562,966.976013 438.868500,961.785828 
	C436.015381,936.346436 432.850128,910.941956 429.779785,885.527100 
	C429.461884,882.895752 429.041901,880.276733 428.630737,877.380493 
	C426.695343,878.058350 426.619843,879.675293 426.132416,880.922974 
	C416.924835,904.490723 407.700836,928.052307 398.576111,951.652222 
	C394.763763,961.512390 393.567810,962.115540 383.338348,958.247070 
	C382.513702,956.679749 383.472839,955.317932 383.987122,953.985291 
	C395.915863,923.076477 407.940063,892.204346 419.784546,861.263489 
	C421.427307,856.972107 423.509003,855.701294 428.270203,856.495178 
	C439.283417,858.331726 439.091156,858.026428 440.419830,868.855591 
	C443.310547,892.415283 446.480408,915.940735 449.609619,940.046082 
	C451.546173,938.731140 451.986237,936.933228 452.661163,935.415588 
	C462.268555,913.812439 471.951569,892.241028 481.289490,870.521484 
	C483.137756,866.222412 485.321381,864.306335 490.301880,865.736816 
z"/>
<path fill={fill} opacity="1.000000" stroke="none" 
	d="
M547.340088,117.940720 
	C547.716003,128.075073 547.865967,137.737457 548.551880,147.361664 
	C548.907654,152.354446 545.567505,151.744690 542.758911,151.951660 
	C539.765320,152.172256 536.036682,153.308472 535.813477,148.180496 
	C535.531128,141.695221 535.165039,135.213501 534.900635,128.727554 
	C534.127747,109.767418 533.391357,90.805786 532.627441,71.845284 
	C532.555725,70.066948 532.681641,68.222336 531.007263,66.092827 
	C529.386108,71.038239 527.841919,75.529053 526.439514,80.063698 
	C519.309570,103.118256 512.116333,126.154213 505.195709,149.271683 
	C503.828094,153.839996 500.615173,153.895081 497.096100,154.104706 
	C493.570587,154.314758 490.483429,154.617935 488.668671,150.099533 
	C478.801544,125.531639 468.615021,101.091873 458.500977,76.623474 
	C457.506042,74.216522 456.869110,71.608589 454.464508,68.776100 
	C454.464508,73.997597 454.293396,78.408905 454.493134,82.803360 
	C455.543365,105.908981 456.668793,129.011261 457.827271,152.111740 
	C457.942230,154.404617 457.016205,155.395920 454.853394,155.866959 
	C447.095612,157.556519 445.236328,156.194946 444.929688,148.382660 
	C443.826172,120.270157 442.734680,92.157166 441.596619,64.046066 
	C441.441956,60.225437 441.083374,56.411484 440.754364,52.600033 
	C440.520233,49.887291 441.741882,48.537487 444.407715,48.408474 
	C448.728607,48.199371 453.049622,47.993103 457.371124,47.796806 
	C460.193817,47.668591 460.872345,49.818893 461.705811,51.853592 
	C472.182312,77.429504 482.672089,103.000008 493.157349,128.572327 
	C494.032166,130.705811 494.663635,132.966736 496.568359,134.999161 
	C498.640106,132.993652 498.921631,130.301193 499.659729,127.924904 
	C507.608215,102.333893 515.578613,76.748642 523.276978,51.082005 
	C524.616882,46.614910 526.474060,44.665775 531.432678,44.424450 
	C543.906311,43.817383 543.844177,43.513893 544.420593,56.113281 
	C545.356262,76.561485 546.360901,97.006531 547.340088,117.940720 
z"/>
<path fill={fill} opacity="1.000000" stroke="none" 
	d="
M132.698441,774.251709 
	C127.647911,766.541626 123.433189,758.863831 121.340118,750.133606 
	C118.762169,739.380920 120.250031,729.172791 125.974854,719.897644 
	C136.366913,703.060913 151.824539,692.665466 170.755539,688.013428 
	C188.477722,683.658508 202.800415,690.954285 214.256760,704.054810 
	C223.474411,714.595276 230.257248,726.947449 238.162033,738.467346 
	C240.530502,741.919006 237.953400,743.146240 235.716644,744.642700 
	C214.695847,758.705811 193.673813,772.767212 172.658905,786.839233 
	C167.268295,790.448853 161.892487,794.080750 156.526489,797.726929 
	C150.912689,801.541443 150.918457,801.556274 147.027466,795.731140 
	C142.313904,788.674561 137.606003,781.614075 132.698441,774.251709 
M169.244370,772.712708 
	C186.997971,760.782471 204.751587,748.852234 222.907135,736.651917 
	C216.213776,727.297546 211.236023,717.624390 203.452011,709.966919 
	C194.170883,700.836853 183.369202,698.051941 170.968140,702.601318 
	C160.836899,706.317932 151.862198,711.936096 144.100403,719.421387 
	C131.912094,731.175598 129.692581,744.214111 137.385376,759.281738 
	C141.176300,766.707092 146.220810,773.358948 150.840256,780.272217 
	C152.583038,782.880432 154.265137,782.773010 156.598526,781.127441 
	C160.538986,778.348511 164.618637,775.766968 169.244370,772.712708 
z"/>
<path fill={fill} opacity="1.000000" stroke="none" 
	d="
M859.575928,335.518524 
	C882.528076,326.914093 905.110107,318.433441 927.691528,309.951050 
	C930.029114,309.072968 932.422852,307.653625 933.726562,311.394226 
	C938.805725,325.967407 945.942932,339.845245 948.523865,355.261475 
	C951.502686,373.054077 946.495300,387.874756 931.867676,398.861908 
	C920.152222,407.661713 906.800171,412.854919 892.266174,413.978424 
	C873.258728,415.447723 859.048401,406.900726 849.793091,390.572235 
	C842.383057,377.499268 838.512695,362.872803 832.900513,349.004791 
	C831.725098,346.100281 833.616760,345.206940 835.836243,344.387512 
	C843.638916,341.506989 851.417847,338.562225 859.575928,335.518524 
M918.389893,328.007721 
	C896.435730,336.270264 874.479431,344.527100 852.530579,352.803772 
	C850.228149,353.671997 847.468079,354.177826 848.920288,357.889648 
	C852.372253,366.713257 854.898254,375.928925 859.758911,384.155029 
	C865.796936,394.373962 874.416443,400.395905 886.718201,399.845490 
	C901.632690,399.178162 915.144043,394.215240 926.756897,384.993805 
	C935.612366,377.961914 938.994507,368.375977 937.035767,356.964111 
	C935.555664,348.340973 932.183228,340.388794 929.062744,332.336304 
	C926.139221,324.791718 927.788086,324.512299 918.389893,328.007721 
z"/>
<path fill={fill} opacity="1.000000" stroke="none" 
	d="
M227.178162,262.927002 
	C234.188385,273.945282 235.253799,285.040192 229.118073,296.349030 
	C223.362579,306.957062 214.957870,314.195038 201.052414,315.189728 
	C212.195633,323.096588 221.850876,330.421722 232.007767,336.968658 
	C237.683380,340.627075 234.178436,343.132202 232.259689,346.500549 
	C229.988800,350.487030 227.806976,350.196259 224.384048,347.760651 
	C196.580292,327.977417 168.656479,308.363007 140.819458,288.626312 
	C139.199417,287.477692 136.046677,286.789551 136.920731,284.145996 
	C138.002792,280.873291 140.287170,278.035248 142.972183,275.768616 
	C143.965118,274.930389 145.166077,275.976868 146.142883,276.587555 
	C148.218277,277.885040 150.276550,279.209930 152.962158,280.918182 
	C152.452225,277.356415 151.825790,274.629333 151.705246,271.880066 
	C150.666733,248.196884 172.543091,231.757446 195.234085,239.430832 
	C208.139572,243.795074 218.924042,251.438156 227.178162,262.927002 
M181.704330,251.011917 
	C165.641098,252.752823 155.959198,270.635223 163.986588,284.596741 
	C170.440262,295.821198 180.707642,302.690765 193.225998,305.439575 
	C202.152527,307.399658 209.534363,303.740814 214.990646,296.401886 
	C220.273788,289.295868 222.448746,281.244354 217.666504,273.557770 
	C209.686722,260.731720 198.333344,252.208328 181.704330,251.011917 
z"/>
<path fill={fill} opacity="1.000000" stroke="none" 
	d="
M766.485474,763.475342 
	C758.795288,754.742737 751.335144,746.271973 744.042053,737.990967 
	C744.315002,737.201538 744.335144,736.805359 744.542908,736.590942 
	C752.545105,728.338074 752.658936,728.241028 760.255371,736.792297 
	C782.143433,761.431946 803.899048,786.189453 825.810120,810.808533 
	C828.172302,813.462646 828.190979,815.271240 825.302002,817.220581 
	C824.338989,817.870422 823.322388,818.534546 822.584167,819.406982 
	C819.867981,822.617065 817.676086,821.740417 815.384216,818.854675 
	C814.218933,817.387512 813.152161,815.626282 810.647644,814.663452 
	C810.459534,818.270935 810.640564,821.426941 810.079651,824.445068 
	C807.173218,840.083313 786.789001,857.332947 767.072449,848.421387 
	C750.329407,840.853882 738.531982,828.242249 733.693237,810.276672 
	C728.244751,790.046692 744.483948,769.681335 765.477478,769.653259 
	C767.113464,769.651062 768.749390,769.652954 770.927795,769.652954 
	C770.022827,766.868896 768.001648,765.545715 766.485474,763.475342 
M759.976318,827.532471 
	C763.097046,830.562622 766.468750,833.263977 770.475464,835.029236 
	C778.564392,838.593140 786.047729,837.354065 792.876587,831.911072 
	C799.546021,826.595093 803.697571,819.859680 801.737122,811.145325 
	C798.362732,796.145813 789.191956,785.662598 774.781555,780.312927 
	C765.731689,776.953125 758.145386,780.693726 751.818481,787.149414 
	C745.525391,793.570557 743.879333,801.148926 747.198303,809.638489 
	C749.858337,816.442505 754.422729,821.910339 759.976318,827.532471 
z"/>
<path fill={fill} opacity="1.000000" stroke="none" 
	d="
M254.312256,894.324585 
	C261.821594,884.181946 269.117615,874.324646 276.985199,863.695129 
	C270.712463,864.521851 265.624023,865.862610 260.224915,864.570374 
	C238.353790,859.335693 227.703430,838.734436 236.806717,818.272705 
	C242.253403,806.030151 249.915588,795.336426 261.819580,788.556702 
	C281.544250,777.322937 305.711182,788.356262 310.485199,810.539673 
	C310.833893,812.159790 311.206970,813.774719 311.588776,815.481567 
	C313.764587,815.570740 313.941620,813.432312 315.090851,812.445557 
	C316.487366,811.246399 317.056274,808.174500 319.539917,809.401672 
	C322.616943,810.922058 325.846161,812.685242 327.639038,815.775330 
	C328.437653,817.151794 326.643921,818.449524 325.785339,819.611877 
	C308.267975,843.326660 290.716919,867.016663 273.180420,890.717407 
	C270.009796,895.002502 266.710785,899.205505 263.778137,903.649170 
	C261.783691,906.671326 259.886047,906.856506 257.374237,904.521912 
	C256.767609,903.958130 256.100372,903.416992 255.372635,903.032898 
	C251.113358,900.784790 250.562561,898.016724 254.312256,894.324585 
M296.486023,805.044861 
	C284.999207,794.450684 273.435333,794.160400 262.530670,804.601013 
	C256.614258,810.265869 251.902832,816.920593 248.888794,824.650940 
	C245.219894,834.060913 247.432770,843.362122 254.820572,849.458740 
	C263.600403,856.704102 273.240662,857.807129 281.972107,852.249695 
	C290.355438,846.913757 296.134979,839.295227 300.128204,830.283875 
	C304.051239,821.430908 303.168884,813.152893 296.486023,805.044861 
z"/>
<path fill={fill} opacity="1.000000" stroke="none" 
	d="
M682.219849,89.280273 
	C684.291565,85.058868 686.285095,81.210434 688.060791,77.263992 
	C689.405518,74.275436 691.081970,72.989975 694.171509,75.101166 
	C695.122192,75.750816 696.222534,76.230156 697.315125,76.614594 
	C701.035950,77.923798 701.471130,79.918900 699.644775,83.444374 
	C694.592224,93.197517 689.898682,103.136887 685.085266,113.013374 
	C684.313416,114.597122 683.654724,116.236038 682.483032,118.895050 
	C691.608826,114.487511 699.921082,113.672157 708.544189,116.774216 
	C724.859924,122.643646 732.935486,135.316727 730.326721,152.486359 
	C728.003418,167.777039 721.617065,181.327927 709.167725,190.925171 
	C691.521179,204.528885 665.963745,196.687271 658.145264,175.792358 
	C657.696411,174.592743 657.798706,173.082733 656.415344,172.271500 
	C654.867371,172.642242 654.516541,174.091003 654.133911,175.253647 
	C652.630249,179.822586 650.268372,180.604446 645.964966,178.197083 
	C639.980957,174.849640 639.832703,175.112854 642.906738,168.886627 
	C655.953552,142.461319 669.000916,116.036278 682.219849,89.280273 
M668.981140,175.443771 
	C669.903931,176.404846 670.773926,177.423996 671.757629,178.318069 
	C682.289185,187.889740 695.484985,187.314545 704.789062,176.590408 
	C710.768494,169.698288 714.787781,161.663544 716.764343,152.706238 
	C719.187195,141.726334 715.628906,133.822983 705.933838,128.383240 
	C696.043579,122.834000 686.030090,123.809326 678.403809,131.486786 
	C671.419983,138.517426 667.411255,147.187943 665.144409,156.815399 
	C663.580750,163.456375 664.976746,169.310913 668.981140,175.443771 
z"/>
<path fill={fill} opacity="1.000000" stroke="none" 
	d="
M780.533264,272.164001 
	C776.886963,261.261444 779.232666,251.657394 785.493347,242.985046 
	C793.912781,231.322327 804.663452,222.713058 819.004456,219.349365 
	C834.063843,215.817169 849.084961,223.365341 858.037109,238.904755 
	C865.457825,251.785660 863.381653,264.886383 852.056946,276.638977 
	C841.000366,288.113190 840.671387,288.139587 830.641541,276.134247 
	C821.695862,265.426666 812.850708,254.635086 804.002869,243.931015 
	C793.175049,250.005371 788.815125,263.218353 794.452515,273.686340 
	C799.546143,283.144836 806.649231,290.085144 818.630249,288.495728 
	C822.250427,288.015442 823.105713,290.121948 823.195496,292.815308 
	C823.288757,295.614990 825.303284,299.276642 820.145081,300.188232 
	C808.952271,302.166290 799.814636,298.270294 792.158386,290.471802 
	C787.119019,285.338715 782.956787,279.506622 780.533264,272.164001 
M820.701477,246.819351 
	C827.051514,254.436920 833.401550,262.054474 839.934998,269.892029 
	C846.915955,264.142548 851.455017,257.895844 849.643494,249.220627 
	C847.857910,240.669159 842.489319,234.392227 834.134583,231.772003 
	C826.459900,229.365067 819.222534,231.357193 812.512146,236.589920 
	C815.290771,240.067978 817.768677,243.169601 820.701477,246.819351 
z"/>
<path fill={fill} opacity="1.000000" stroke="none" 
	d="
M95.009567,513.191345 
	C74.483498,502.280640 68.532906,475.614655 82.338249,457.739807 
	C87.574310,450.960236 94.865860,447.916595 103.063507,447.071777 
	C107.676094,446.596436 112.383179,446.923462 117.043007,447.054962 
	C121.314346,447.175415 123.109627,449.072693 122.714592,453.762817 
	C121.373749,469.682617 120.444801,485.637146 119.379547,501.579834 
	C119.336533,502.223663 119.506775,502.881775 119.573189,503.492126 
	C133.869781,506.946136 146.863098,497.391083 147.799591,483.060852 
	C148.385391,474.096954 147.036880,466.258209 138.798828,460.742096 
	C134.491302,457.857849 138.918930,455.272949 140.100113,452.773712 
	C141.534698,449.738342 143.779739,450.039917 146.265991,451.716156 
	C157.129913,459.040680 160.496216,469.758026 159.784271,482.120636 
	C158.042603,512.364197 135.752563,520.189697 112.629669,517.939636 
	C106.667068,517.359375 100.801430,516.050110 95.009567,513.191345 
M88.381294,490.946198 
	C91.384018,497.622589 97.179214,500.613770 103.766937,502.464447 
	C106.015434,503.096161 108.344978,503.046387 108.549683,499.924042 
	C109.340813,487.856506 110.009636,475.780914 110.731026,463.708801 
	C110.880836,461.201843 109.710365,460.206543 107.214935,460.030640 
	C96.015320,459.241211 87.597137,466.251343 86.473587,477.565155 
	C86.044060,481.890411 86.252876,486.187958 88.381294,490.946198 
z"/>
<path fill={fill} opacity="1.000000" stroke="none" 
	d="
M278.653992,216.422363 
	C276.899811,211.162094 279.794586,210.150436 283.696625,209.196045 
	C288.210999,208.091888 289.316895,210.500473 289.927887,213.982239 
	C291.920868,225.339859 287.720093,234.533646 279.911530,242.428772 
	C263.346619,259.177307 242.393280,259.389526 225.535385,242.950333 
	C219.174179,236.747101 213.585861,229.970291 210.326935,221.539352 
	C201.920990,199.792923 218.336655,173.748474 241.680939,172.099655 
	C249.522888,171.545746 256.418579,174.575302 262.305359,179.589432 
	C265.712463,182.491486 268.613983,185.979156 271.854675,189.086868 
	C274.972015,192.076309 274.671143,194.608139 271.514343,197.432022 
	C261.714996,206.197922 252.041779,215.104752 242.308990,223.945221 
	C239.619446,226.388199 236.640045,228.542603 234.614243,231.582687 
	C239.632980,239.530746 250.986755,244.151611 259.277161,241.719666 
	C270.549164,238.413101 278.822754,227.808289 278.653992,216.422363 
M220.097672,208.259720 
	C220.623901,213.668381 222.748184,218.311096 226.713730,222.921707 
	C237.574722,213.138962 248.011215,203.738571 258.416718,194.366089 
	C252.085587,186.106033 243.533966,182.797073 236.091187,185.426865 
	C227.151459,188.585602 220.412796,197.800583 220.097672,208.259720 
z"/>
<path fill={fill} opacity="1.000000" stroke="none" 
	d="
M681.626099,865.589294 
	C694.855164,858.259521 707.751465,851.094910 720.561646,843.978088 
	C716.282166,833.192749 706.174622,827.000916 695.891113,828.383850 
	C684.814514,829.873535 675.050049,838.954956 674.196411,849.221802 
	C673.790344,854.106323 671.071899,854.186584 667.425354,854.159546 
	C663.327271,854.129150 662.506714,852.048584 662.590759,848.439087 
	C662.744507,841.834473 664.634216,835.861877 669.025391,831.021484 
	C683.285034,815.303223 711.537720,805.065735 730.609253,833.021729 
	C735.439148,840.101685 739.434021,847.531677 741.205261,855.970398 
	C745.449402,876.190369 732.892822,894.515686 711.750366,899.315857 
	C700.611328,901.844727 691.431396,898.509888 683.727234,890.463562 
	C679.892761,886.458679 677.472839,881.480774 674.580688,876.816650 
	C671.919495,872.524902 672.760620,869.752075 677.309753,867.828674 
	C678.684265,867.247559 679.968079,866.451843 681.626099,865.589294 
M712.523682,861.093079 
	C704.509460,865.604492 696.495239,870.115845 688.523804,874.603210 
	C695.376709,887.878845 706.152954,891.294495 717.880432,884.833618 
	C728.400024,879.038086 733.417358,866.963074 725.895203,854.419861 
	C721.353699,855.800476 717.442566,858.664917 712.523682,861.093079 
z"/>
<path fill={fill} opacity="1.000000" stroke="none" 
	d="
M331.897095,833.963196 
	C344.692627,825.255127 358.845764,825.904663 373.270691,835.616150 
	C386.442413,844.484070 391.703979,857.158447 387.961853,872.846558 
	C384.900879,885.679077 379.626526,897.521667 368.793579,905.906433 
	C348.865662,921.330688 316.525513,909.543884 312.296722,885.156555 
	C310.499878,874.794250 314.956024,865.575928 319.601807,856.667725 
	C321.028870,853.931274 323.382538,855.442871 325.302765,856.288940 
	C338.711761,862.196838 352.097015,868.158630 365.497589,874.085693 
	C367.591919,875.012024 369.552155,876.409790 371.982971,876.193542 
	C378.826172,864.953308 376.072693,851.423889 365.219727,844.687927 
	C356.574463,839.322144 347.509430,836.684204 338.260193,843.656250 
	C336.110046,845.277039 334.338135,844.600403 333.301056,842.554260 
	C331.999268,839.985779 327.431366,837.911621 331.897095,833.963196 
M361.123871,895.658264 
	C363.308411,893.197388 365.841858,890.986084 367.175354,887.035034 
	C354.877319,881.594543 342.621246,876.166138 330.357605,870.755005 
	C328.688660,870.018616 327.568207,870.646851 326.661285,872.188171 
	C323.756500,877.124817 324.544586,887.989075 328.225281,892.655151 
	C336.118530,902.661987 350.734497,904.233398 361.123871,895.658264 
z"/>
<path fill={fill} opacity="1.000000" stroke="none" 
	d="
M179.143921,628.151123 
	C185.762421,650.618042 178.492828,666.206116 157.369522,675.409180 
	C147.955734,679.510620 138.236465,682.553284 127.849113,680.937256 
	C111.787476,678.438477 99.940964,665.759460 97.695236,649.254089 
	C95.610199,633.929688 100.854126,623.673401 114.694511,616.514771 
	C118.226166,614.688171 122.074066,613.482971 125.720909,611.866516 
	C129.753281,610.079102 131.835770,611.621887 133.212860,615.524536 
	C138.083908,629.329102 143.109711,643.079224 148.093765,656.843811 
	C150.589890,663.737427 151.104950,663.845581 157.506653,660.075623 
	C175.645538,649.393555 170.626083,631.131592 161.608215,620.877869 
	C159.151764,618.084778 155.708511,616.532166 151.967209,616.007141 
	C147.041016,615.315857 148.190582,612.024719 148.714981,608.871338 
	C149.241165,605.707214 150.150650,603.779480 154.201279,604.491028 
	C167.664291,606.856079 174.783585,615.712891 179.143921,628.151123 
M130.523849,667.950928 
	C133.425842,667.666626 136.565521,668.551941 139.609802,665.825684 
	C135.130554,653.520325 130.596710,641.039124 126.036308,628.567627 
	C125.427414,626.902466 124.321960,626.157593 122.534813,627.048401 
	C116.616730,629.998352 111.140884,633.391296 109.148651,640.302002 
	C105.436493,653.178833 115.874367,667.269531 130.523849,667.950928 
z"/>
<path fill={fill} opacity="1.000000" stroke="none" 
	d="
M918.335022,599.555176 
	C937.334473,614.204468 939.083923,640.420776 922.362671,656.491638 
	C913.795654,664.725403 903.433411,665.874939 892.579895,662.950989 
	C875.636108,658.386414 878.619507,659.335876 882.620117,646.159485 
	C886.390625,633.740723 890.030396,621.280945 893.947266,608.908691 
	C895.112610,605.227600 894.232788,603.831482 890.425476,603.224609 
	C871.133789,600.149109 855.962891,616.327759 861.344604,634.377136 
	C862.224915,637.329468 863.820801,639.868042 865.921448,642.014709 
	C868.467834,644.616699 867.336365,646.469543 864.985779,648.119690 
	C862.688049,649.732727 860.955444,653.841858 857.257751,649.969482 
	C850.348694,642.733887 847.676697,634.129517 848.980774,624.298523 
	C849.528259,620.171570 850.591431,616.129578 852.174866,612.259399 
	C860.315735,592.361511 876.036743,585.348755 899.328247,591.271423 
	C905.982727,592.963623 912.331116,595.429626 918.335022,599.555176 
M895.018982,649.910278 
	C909.531372,653.729492 918.746155,648.347107 921.918213,634.198303 
	C924.629822,622.103149 917.786987,611.121033 906.035583,608.983521 
	C905.752441,609.487122 905.327881,610.011536 905.140198,610.610107 
	C901.406128,622.520752 897.700623,634.440369 893.984863,646.356689 
	C893.632996,647.484985 893.212280,648.608032 895.018982,649.910278 
z"/>
<path fill={fill} opacity="1.000000" stroke="none" 
	d="
M945.549194,447.692078 
	C949.036438,455.713165 950.318604,463.766449 948.956421,471.972809 
	C946.632385,485.972992 937.083862,494.583038 921.701660,497.196838 
	C908.336121,499.467957 908.106018,499.500031 906.261597,486.257446 
	C904.447632,473.234192 903.174561,460.135773 901.641541,447.072968 
	C901.472412,445.632019 901.154541,444.208496 900.912842,442.817749 
	C877.769165,445.019928 872.055603,463.268738 880.085022,480.288391 
	C881.849792,484.029144 884.953430,486.706024 888.756714,488.245789 
	C894.156311,490.431854 891.194153,493.700531 890.188782,496.826263 
	C888.922363,500.763550 886.408936,500.246643 883.520020,498.874298 
	C876.451904,495.516632 871.085449,490.440155 868.319214,483.064911 
	C862.170227,466.670441 863.785889,447.105743 878.206909,436.785919 
	C892.543213,426.526672 918.611023,424.709442 932.927063,433.416260 
	C938.507629,436.810303 942.707947,441.381866 945.549194,447.692078 
M938.497986,463.730560 
	C935.583435,448.658752 930.534912,443.205811 917.880859,441.461700 
	C912.983154,440.786682 911.917419,441.891113 912.548401,446.820068 
	C913.199707,451.908142 913.539124,457.047516 914.432007,462.090607 
	C915.721985,469.376190 915.538147,476.901031 917.626160,483.999451 
	C930.570496,483.709015 937.251709,477.390411 938.497986,463.730560 
z"/>
<path fill={fill} opacity="1.000000" stroke="none" 
	d="
M139.859955,397.400238 
	C126.761986,393.791138 115.325684,388.111847 108.141335,376.557220 
	C99.125374,362.056702 102.675392,347.970154 111.385674,334.877441 
	C119.721443,322.347656 131.986633,318.089722 146.654266,320.589783 
	C157.019928,322.356537 166.528183,326.329315 174.699051,332.954651 
	C191.082031,346.238831 192.775665,367.118805 179.212296,385.603058 
	C170.560501,397.393799 156.690460,401.624237 139.859955,397.400238 
M148.942627,385.671814 
	C149.773956,385.714447 150.604874,385.770233 151.436691,385.797729 
	C163.278717,386.189026 170.680664,380.893341 174.531967,369.279083 
	C178.086716,358.559174 175.200607,349.570007 165.805069,343.061279 
	C159.451630,338.659973 152.367584,335.834625 144.804550,334.145294 
	C131.896652,331.262146 122.499542,336.037659 117.526428,348.151337 
	C112.726135,359.844055 116.057060,370.163177 126.915016,377.008301 
	C133.447784,381.126801 140.499863,384.016602 148.942627,385.671814 
z"/>
<path fill={fill} opacity="1.000000" stroke="none" 
	d="
M835.633423,779.807556 
	C818.216797,775.424927 804.687561,766.338379 796.956665,750.324341 
	C790.211121,736.351257 794.542358,723.724365 803.654419,712.292664 
	C812.391174,701.331848 823.680908,696.603516 837.617493,699.270142 
	C851.344727,701.896667 862.199768,709.545349 870.586060,720.297485 
	C880.104858,732.501465 881.086365,745.964539 873.292786,759.508545 
	C865.093750,773.757263 853.462952,782.219971 835.633423,779.807556 
M848.228638,718.267395 
	C845.011230,716.535278 841.915283,714.507446 838.553711,713.126099 
	C828.236938,708.886536 819.497192,711.516785 812.090698,720.784790 
	C804.811096,729.893799 804.241699,739.246460 810.837891,748.260620 
	C817.009033,756.693909 825.465881,762.277283 835.130920,765.914490 
	C844.904419,769.592529 853.610413,766.600403 860.548218,757.662231 
	C867.173645,749.126465 867.694275,739.163086 861.955627,730.794128 
	C858.500549,725.755249 853.756836,722.112854 848.228638,718.267395 
z"/>
<path fill={fill} opacity="1.000000" stroke="none" 
	d="
M594.980713,164.379471 
	C570.729431,159.272354 561.994629,139.668762 566.403992,117.788933 
	C568.783264,105.982506 572.694153,94.883606 582.856079,87.393311 
	C595.716003,77.914337 609.453613,79.160942 623.028748,85.451241 
	C635.932068,91.430229 641.740112,102.318748 642.316162,116.229317 
	C642.723511,126.066765 640.383667,135.370163 636.384033,144.262619 
	C628.869141,160.970154 613.272827,168.597565 594.980713,164.379471 
M591.936646,96.352310 
	C581.060913,105.899368 578.480042,118.675011 578.979248,132.135681 
	C579.433716,144.388092 585.826172,150.648987 598.456238,153.140717 
	C609.552124,155.329773 617.763489,151.291321 623.138550,140.861664 
	C626.859436,133.641769 628.714111,125.914627 628.881287,117.800720 
	C629.297424,97.607971 610.436890,86.280449 591.936646,96.352310 
z"/>
<path fill={fill} opacity="1.000000" stroke="none" 
	d="
M887.995911,546.049561 
	C906.326294,554.887512 924.345642,563.541565 942.350220,572.226440 
	C946.915710,574.428711 947.539062,578.906921 944.336853,586.782593 
	C940.330872,586.267517 937.032776,583.855103 933.515076,582.180054 
	C912.760376,572.296997 892.124634,562.164246 871.375793,552.268738 
	C867.839111,550.582031 866.477600,548.471252 866.965454,544.484436 
	C868.392090,532.824524 868.260132,532.808167 879.690918,529.582275 
	C901.798767,523.343201 923.906189,517.102356 946.014954,510.866638 
	C951.752869,509.248291 951.922363,509.393982 951.425415,515.333862 
	C950.756775,523.326111 950.708435,523.151794 942.881165,525.317017 
	C924.113525,530.508545 905.393433,535.871948 886.663330,541.198425 
	C885.445251,541.544800 884.305115,542.165344 883.023438,542.702393 
	C884.218506,544.712036 886.244690,544.849609 887.995911,546.049561 
z"/>
<path fill={fill} opacity="1.000000" stroke="none" 
	d="
M128.448196,586.517578 
	C114.342537,594.316223 100.558136,601.937927 86.787773,609.551880 
	C81.888153,600.823608 82.951614,596.743042 90.596848,592.537903 
	C107.084381,583.469360 123.567833,574.393311 140.029709,565.278320 
	C141.726837,564.338623 143.670563,563.662781 145.075333,561.459778 
	C140.306793,559.084900 135.138107,558.729858 130.253830,557.582886 
	C114.233063,553.820984 98.187767,550.136108 82.061241,546.869141 
	C77.335205,545.911682 75.375481,543.806885 75.632935,539.234436 
	C75.742111,537.295593 74.297600,535.400452 75.407127,533.447021 
	C76.671471,532.465271 77.970245,532.871033 79.262138,533.159546 
	C104.427055,538.779236 129.579117,544.457825 154.771194,549.953003 
	C158.528076,550.772522 159.910141,552.689758 160.305710,556.348572 
	C161.594330,568.267761 161.698044,568.254761 151.098801,574.072754 
	C143.654099,578.159180 136.212448,582.251099 128.448196,586.517578 
z"/>
<path fill={fill} opacity="1.000000" stroke="none" 
	d="
M843.007202,662.794617 
	C847.540222,662.956299 851.199341,664.579529 854.793884,666.328979 
	C881.265503,679.213501 907.673096,692.231323 934.231689,704.933594 
	C938.946045,707.188416 938.104858,709.573120 936.279541,713.088379 
	C934.489441,716.535828 933.466736,719.433411 928.290649,716.849426 
	C902.398315,703.923706 876.308044,691.394775 850.295410,678.709595 
	C841.617371,674.477722 839.985168,674.913635 835.884216,683.711548 
	C834.344666,687.014404 832.236938,685.872498 830.123901,685.116455 
	C827.623352,684.221680 824.285034,684.143433 824.990845,679.836609 
	C826.515076,670.534912 833.260376,663.886536 843.007202,662.794617 
z"/>
<path fill={fill} opacity="1.000000" stroke="none" 
	d="
M753.140015,225.266846 
	C773.748779,201.928787 794.220276,178.955063 814.436096,155.758545 
	C819.079956,150.429871 821.102112,155.470383 824.013977,157.355377 
	C827.369080,159.527328 826.957397,161.639557 824.371765,164.522446 
	C805.272400,185.816925 786.327209,207.249664 767.346802,228.650650 
	C766.244507,229.893555 765.192932,231.192581 764.228455,232.544449 
	C760.872009,237.248856 761.109558,240.839340 766.022949,243.967072 
	C770.561340,246.856049 768.213013,249.114456 766.516418,252.040817 
	C764.515076,255.493011 762.328430,255.532013 759.166199,253.577972 
	C748.146912,246.768906 745.801270,236.561829 753.140015,225.266846 
z"/>
<path fill={fill} opacity="1.000000" stroke="none" 
	d="
M120.508339,429.591675 
	C99.177116,424.749634 78.257980,419.985962 57.314941,415.329834 
	C54.122765,414.620117 53.377701,412.937866 53.926571,409.939606 
	C55.442501,401.658630 55.382042,401.641449 63.816936,403.540955 
	C91.251663,409.719147 118.688713,415.887085 146.117432,422.091888 
	C154.888779,424.076111 157.048965,422.832184 158.716187,413.945770 
	C159.433380,410.123016 162.105667,410.950623 164.462708,410.979340 
	C167.149719,411.012024 169.825790,411.013916 170.304993,414.829590 
	C171.904739,427.567932 161.404221,437.956268 148.748001,435.654694 
	C139.417465,433.957886 130.187439,431.708405 120.508339,429.591675 
z"/>
<path fill={fill} opacity="1.000000" stroke="none" 
	d="
M302.685120,204.276535 
	C291.564972,186.435638 280.733643,168.840561 269.620117,151.425568 
	C267.108368,147.489609 268.746429,145.953644 271.956848,144.183350 
	C274.990448,142.510544 277.801331,139.520157 280.351349,144.763229 
	C281.206726,146.522018 282.537170,148.049774 284.289703,150.621033 
	C284.547089,147.742279 284.609711,145.854385 284.899567,144.002045 
	C286.287170,135.134247 296.027649,125.838013 304.958130,124.643372 
	C310.697144,123.875656 309.402832,128.732544 310.610535,131.550003 
	C311.793030,134.308670 311.284973,136.153961 307.995972,137.203110 
	C292.960907,141.999115 288.567169,151.114532 294.984680,165.583374 
	C301.012329,179.173264 310.083435,191.069397 317.616730,203.828796 
	C318.737549,205.727112 321.541992,207.734894 319.848724,209.914474 
	C317.749542,212.616562 314.448700,214.336258 311.068207,215.350281 
	C309.490112,215.823654 308.839020,214.155273 308.145020,213.079529 
	C306.338959,210.280029 304.623444,207.422134 302.685120,204.276535 
z"/>
<path fill="" opacity="1.000000" stroke="none" 
	d="
M651.299500,864.818481 
	C656.853455,881.429688 662.152588,897.713989 667.874268,913.848389 
	C669.560608,918.603699 666.803650,919.260986 663.651123,920.216492 
	C660.549377,921.156616 657.174377,923.217957 655.904053,917.861389 
	C655.412598,915.788818 654.513611,913.812866 653.318604,910.429138 
	C650.865356,922.174377 644.205750,928.328857 633.925110,930.707642 
	C633.116577,930.894714 632.317200,931.150696 631.498352,931.259521 
	C624.719604,932.160461 621.026001,927.409058 623.451233,920.969727 
	C624.194031,918.997742 625.814758,918.980896 627.522644,918.843994 
	C642.191528,917.668213 648.234375,910.461304 646.761047,895.771240 
	C646.023926,888.421692 643.280273,881.593506 640.909729,874.676270 
	C638.052429,866.338928 635.361633,857.941406 632.331604,849.667786 
	C631.109741,846.331299 631.985901,844.652344 635.245911,843.809143 
	C636.530884,843.476807 637.841736,843.131714 639.030518,842.562195 
	C642.336670,840.978149 643.855164,842.384766 644.850769,845.522522 
	C646.861694,851.860535 649.075745,858.134155 651.299500,864.818481 
z"/>
<path fill={fill} opacity="1.000000" stroke="none" 
	d="
M770.390381,155.639160 
	C773.394348,157.443268 773.096924,159.183105 771.385193,161.542801 
	C757.207397,181.087463 743.094543,200.679596 729.060120,220.327438 
	C727.033264,223.164963 725.061829,224.399399 722.319885,221.551666 
	C719.979980,219.121475 714.066345,218.552277 718.363403,212.678299 
	C732.521851,193.324326 746.455566,173.804993 760.362915,154.268936 
	C764.551392,148.385239 766.955566,154.265961 770.390381,155.639160 
z"/>
<path fill={fill} opacity="1.000000" stroke="none" 
	d="
M387.038269,157.756088 
	C391.992554,156.107056 395.664825,157.344421 398.013092,161.544983 
	C400.156647,165.379333 400.093048,169.344803 396.819824,172.531403 
	C393.794861,175.476288 389.993317,176.895493 385.887451,174.972641 
	C381.597900,172.963730 380.163239,169.189423 380.747681,164.630951 
	C381.200531,161.098953 383.621826,159.189255 387.038269,157.756088 
z"/>
<path fill={fill} opacity="1.000000" stroke="none" 
	d="
M551.026367,862.792419 
	C558.402100,861.767578 562.412598,863.987732 563.266174,869.270569 
	C564.146118,874.716248 561.777527,878.588867 556.727295,879.961548 
	C551.664001,881.337830 546.981201,879.153687 545.268372,874.617004 
	C543.455872,869.816284 545.287598,865.820679 551.026367,862.792419 
z"/>
<path fill={fill} opacity="1.000000" stroke="none" 
	d="
M773.363892,137.375092 
	C773.237122,129.114838 778.849304,124.490875 785.319336,127.211761 
	C788.750305,128.654587 791.099548,131.256821 791.230957,135.175491 
	C791.353149,138.820786 789.570679,141.576019 786.393066,143.297150 
	C783.127319,145.066040 779.961792,144.546341 776.992554,142.460953 
	C775.308716,141.278290 774.069885,139.752625 773.363892,137.375092 
z"/>
</svg>